<svg width="28" height="40" viewBox="0 0 28 40" fill="none" xmlns="http://www.w3.org/2000/svg">
<path fill-rule="evenodd" clip-rule="evenodd" d="M12.6797 0H20.326C24.4592 0 27.8099 3.35061 27.8099 7.48379C27.8099 11.617 24.4592 14.9676 20.326 14.9676H12.6797V0ZM15.1311 2.45139V12.5162H20.326C23.1054 12.5162 25.3585 10.2631 25.3585 7.48379C25.3585 4.70448 23.1054 2.45139 20.326 2.45139H15.1311Z" fill="white"/>
<path fill-rule="evenodd" clip-rule="evenodd" d="M0 7.48379C0 3.35061 3.35061 0 7.48381 0H15.1302V14.9676H7.48381C3.35061 14.9676 0 11.617 0 7.48379ZM7.48381 2.45139C4.70447 2.45139 2.45139 4.70448 2.45139 7.48379C2.45139 10.2631 4.70448 12.5162 7.48381 12.5162H12.6788V2.45139H7.48381Z" fill="white"/>
<path fill-rule="evenodd" clip-rule="evenodd" d="M0 19.9999C0 15.8667 3.35061 12.5161 7.48381 12.5161H15.1302V27.4837H7.48381C3.35061 27.4837 0 24.1331 0 19.9999ZM7.48381 14.9675C4.70447 14.9675 2.45139 17.2206 2.45139 19.9999C2.45139 22.7792 4.70448 25.0323 7.48381 25.0323H12.6788V14.9675H7.48381Z" fill="white"/>
<path fill-rule="evenodd" clip-rule="evenodd" d="M0 32.516C0 28.3828 3.35061 25.0322 7.48381 25.0322H15.1302V32.4348C15.1302 36.6231 11.692 39.9998 7.52419 39.9998C3.40126 39.9998 0 36.6595 0 32.516ZM7.48381 27.4836C4.70448 27.4836 2.45139 29.7367 2.45139 32.516C2.45139 35.2851 4.73458 37.5484 7.52419 37.5484C10.3587 37.5484 12.6788 35.2487 12.6788 32.4348V27.4836H7.48381Z" fill="white"/>
<path fill-rule="evenodd" clip-rule="evenodd" d="M12.6797 19.9999C12.6797 15.8667 16.0303 12.5161 20.1635 12.5161H20.326C24.4592 12.5161 27.8099 15.8667 27.8099 19.9999C27.8099 24.1331 24.4592 27.4837 20.326 27.4837H20.1635C16.0303 27.4837 12.6797 24.1331 12.6797 19.9999ZM20.1635 14.9675C17.3842 14.9675 15.1311 17.2206 15.1311 19.9999C15.1311 22.7792 17.3842 25.0323 20.1635 25.0323H20.326C23.1054 25.0323 25.3585 22.7792 25.3585 19.9999C25.3585 17.2206 23.1054 14.9675 20.326 14.9675H20.1635Z" fill="white"/>
</svg>
