<svg width="40" height="40" viewBox="0 0 40 40" fill="none" xmlns="http://www.w3.org/2000/svg">
<path fill-rule="evenodd" clip-rule="evenodd" d="M0 0H40V40H0V0ZM30.5714 33.5357C28.7214 33.5357 27.6786 32.5643 26.8714 31.25L23.8143 33.0214C24.9214 35.2071 27.1714 36.8714 30.6643 36.8714C34.2357 36.8714 36.8929 35.0143 36.8929 31.6286C36.8929 28.4857 35.0929 27.0929 31.8929 25.7286L30.9571 25.3214C29.3429 24.6214 28.6429 24.1714 28.6429 23.0357C28.6429 22.1286 29.3429 21.4286 30.4429 21.4286C31.5214 21.4286 32.2214 21.8857 32.8643 23.0429L35.7929 21.1643C34.55 18.9857 32.8357 18.15 30.4429 18.15C27.0857 18.15 24.9429 20.2929 24.9429 23.1143C24.9429 26.1786 26.7429 27.6214 29.4571 28.7786L30.3929 29.1857C32.1071 29.9357 33.1286 30.3929 33.1286 31.6786C33.1286 32.75 32.1286 33.5357 30.5786 33.5357H30.5714ZM16.0071 33.5071C14.7214 33.5071 14.1786 32.6214 13.5929 31.5786L10.5286 33.4286C11.4214 35.3071 13.1643 36.8571 16.1714 36.8571C19.5 36.8571 21.7857 35.0929 21.7857 31.2V18.3571H18.0214V31.1429C18.0214 33.0214 17.2429 33.5 16.0071 33.5V33.5071Z" fill="white"/>
</svg>
