<svg width="473" height="548" viewBox="0 0 473 548" fill="none" xmlns="http://www.w3.org/2000/svg">
<path d="M437.602 -255.145L443.258 -249.488L-260.333 454.104L-265.99 448.447L437.602 -255.145Z" fill="url(#paint0_linear_1336_51)"/>
<path d="M464.471 -228.275L470.128 -222.618L-233.464 480.974L-239.121 475.317L464.471 -228.275Z" fill="url(#paint1_linear_1336_51)"/>
<path d="M491.342 -201.405L496.999 -195.748L-206.593 507.844L-212.25 502.187L491.342 -201.405Z" fill="url(#paint2_linear_1336_51)"/>
<path d="M356.99 -335.755L362.647 -330.098L-340.945 373.494L-346.602 367.837L356.99 -335.755Z" fill="url(#paint3_linear_1336_51)"/>
<path d="M383.861 -308.885L389.518 -303.228L-314.074 400.364L-319.731 394.707L383.861 -308.885Z" fill="url(#paint4_linear_1336_51)"/>
<path d="M410.73 -282.015L416.387 -276.358L-287.205 427.234L-292.861 421.577L410.73 -282.015Z" fill="url(#paint5_linear_1336_51)"/>
<path d="M276.381 -416.365L282.038 -410.708L-421.554 292.884L-427.211 287.227L276.381 -416.365Z" fill="url(#paint6_linear_1336_51)"/>
<path d="M303.25 -389.495L308.907 -383.838L-394.685 319.754L-400.342 314.097L303.25 -389.495Z" fill="url(#paint7_linear_1336_51)"/>
<path d="M330.121 -362.625L335.778 -356.968L-367.814 346.624L-373.471 340.967L330.121 -362.625Z" fill="url(#paint8_linear_1336_51)"/>
<path d="M518.211 -174.535L523.868 -168.878L-179.724 534.714L-185.381 529.057L518.211 -174.535Z" fill="url(#paint9_linear_1336_51)"/>
<path d="M545.082 -147.665L550.739 -142.008L-152.853 561.584L-158.51 555.927L545.082 -147.665Z" fill="url(#paint10_linear_1336_51)"/>
<path d="M571.951 -120.794L577.608 -115.138L-125.984 588.454L-131.641 582.797L571.951 -120.794Z" fill="url(#paint11_linear_1336_51)"/>
<path d="M760.041 67.2959L765.698 72.9528L62.106 776.545L56.4491 770.888L760.041 67.2959Z" fill="url(#paint12_linear_1336_51)"/>
<path d="M786.912 94.166L792.569 99.8229L88.9771 803.415L83.3202 797.758L786.912 94.166Z" fill="url(#paint13_linear_1336_51)"/>
<path d="M813.781 121.036L819.438 126.693L115.846 830.285L110.189 824.628L813.781 121.036Z" fill="url(#paint14_linear_1336_51)"/>
<path d="M679.432 -13.3145L685.088 -7.6576L-18.5034 695.934L-24.1603 690.277L679.432 -13.3145Z" fill="url(#paint15_linear_1336_51)"/>
<path d="M706.303 13.5557L711.96 19.2125L8.3677 722.804L2.71084 717.148L706.303 13.5557Z" fill="url(#paint16_linear_1336_51)"/>
<path d="M733.172 40.4258L738.829 46.0826L35.2368 749.675L29.58 744.018L733.172 40.4258Z" fill="url(#paint17_linear_1336_51)"/>
<path d="M598.822 -93.9243L604.479 -88.2675L-99.1128 615.324L-104.77 609.668L598.822 -93.9243Z" fill="url(#paint18_linear_1336_51)"/>
<path d="M625.691 -67.0547L631.348 -61.3978L-72.2436 642.194L-77.9005 636.537L625.691 -67.0547Z" fill="url(#paint19_linear_1336_51)"/>
<path d="M652.562 -40.1846L658.219 -34.5277L-45.3725 669.064L-51.0294 663.407L652.562 -40.1846Z" fill="url(#paint20_linear_1336_51)"/>
<path d="M840.652 147.906L846.309 153.563L142.717 857.155L137.06 851.498L840.652 147.906Z" fill="url(#paint21_linear_1336_51)"/>
<path d="M867.521 174.776L873.178 180.433L169.586 884.025L163.93 878.368L867.521 174.776Z" fill="url(#paint22_linear_1336_51)"/>
<path d="M894.393 201.646L900.049 207.303L196.458 910.895L190.801 905.238L894.393 201.646Z" fill="url(#paint23_linear_1336_51)"/>
<defs>
<linearGradient id="paint0_linear_1336_51" x1="440.43" y1="-252.317" x2="-263.162" y2="451.275" gradientUnits="userSpaceOnUse">
<stop stop-color="#4813FF"/>
<stop offset="1" stop-color="#140743"/>
</linearGradient>
<linearGradient id="paint1_linear_1336_51" x1="467.299" y1="-225.446" x2="-236.293" y2="478.146" gradientUnits="userSpaceOnUse">
<stop stop-color="#4813FF"/>
<stop offset="1" stop-color="#140743"/>
</linearGradient>
<linearGradient id="paint2_linear_1336_51" x1="494.17" y1="-198.576" x2="-209.422" y2="505.016" gradientUnits="userSpaceOnUse">
<stop stop-color="#4813FF"/>
<stop offset="1" stop-color="#140743"/>
</linearGradient>
<linearGradient id="paint3_linear_1336_51" x1="359.819" y1="-332.926" x2="-343.773" y2="370.666" gradientUnits="userSpaceOnUse">
<stop stop-color="#4813FF"/>
<stop offset="1" stop-color="#140743"/>
</linearGradient>
<linearGradient id="paint4_linear_1336_51" x1="386.69" y1="-306.057" x2="-316.902" y2="397.535" gradientUnits="userSpaceOnUse">
<stop stop-color="#4813FF"/>
<stop offset="1" stop-color="#140743"/>
</linearGradient>
<linearGradient id="paint5_linear_1336_51" x1="413.559" y1="-279.186" x2="-290.033" y2="424.405" gradientUnits="userSpaceOnUse">
<stop stop-color="#4813FF"/>
<stop offset="1" stop-color="#140743"/>
</linearGradient>
<linearGradient id="paint6_linear_1336_51" x1="279.209" y1="-413.537" x2="-424.383" y2="290.055" gradientUnits="userSpaceOnUse">
<stop stop-color="#4813FF"/>
<stop offset="1" stop-color="#140743"/>
</linearGradient>
<linearGradient id="paint7_linear_1336_51" x1="306.078" y1="-386.666" x2="-397.513" y2="316.926" gradientUnits="userSpaceOnUse">
<stop stop-color="#4813FF"/>
<stop offset="1" stop-color="#140743"/>
</linearGradient>
<linearGradient id="paint8_linear_1336_51" x1="332.95" y1="-359.797" x2="-370.642" y2="343.795" gradientUnits="userSpaceOnUse">
<stop stop-color="#4813FF"/>
<stop offset="1" stop-color="#140743"/>
</linearGradient>
<linearGradient id="paint9_linear_1336_51" x1="521.039" y1="-171.706" x2="-182.553" y2="531.886" gradientUnits="userSpaceOnUse">
<stop stop-color="#4813FF"/>
<stop offset="1" stop-color="#140743"/>
</linearGradient>
<linearGradient id="paint10_linear_1336_51" x1="547.91" y1="-144.836" x2="-155.681" y2="558.756" gradientUnits="userSpaceOnUse">
<stop stop-color="#4813FF"/>
<stop offset="1" stop-color="#140743"/>
</linearGradient>
<linearGradient id="paint11_linear_1336_51" x1="574.78" y1="-117.966" x2="-128.812" y2="585.626" gradientUnits="userSpaceOnUse">
<stop stop-color="#4813FF"/>
<stop offset="1" stop-color="#140743"/>
</linearGradient>
<linearGradient id="paint12_linear_1336_51" x1="762.869" y1="70.1243" x2="59.2776" y2="773.716" gradientUnits="userSpaceOnUse">
<stop stop-color="#4813FF"/>
<stop offset="1" stop-color="#140743"/>
</linearGradient>
<linearGradient id="paint13_linear_1336_51" x1="789.741" y1="96.9944" x2="86.1487" y2="800.586" gradientUnits="userSpaceOnUse">
<stop stop-color="#4813FF"/>
<stop offset="1" stop-color="#140743"/>
</linearGradient>
<linearGradient id="paint14_linear_1336_51" x1="816.61" y1="123.865" x2="113.018" y2="827.456" gradientUnits="userSpaceOnUse">
<stop stop-color="#4813FF"/>
<stop offset="1" stop-color="#140743"/>
</linearGradient>
<linearGradient id="paint15_linear_1336_51" x1="682.26" y1="-10.486" x2="-21.3318" y2="693.106" gradientUnits="userSpaceOnUse">
<stop stop-color="#4813FF"/>
<stop offset="1" stop-color="#140743"/>
</linearGradient>
<linearGradient id="paint16_linear_1336_51" x1="709.131" y1="16.3841" x2="5.5393" y2="719.976" gradientUnits="userSpaceOnUse">
<stop stop-color="#4813FF"/>
<stop offset="1" stop-color="#140743"/>
</linearGradient>
<linearGradient id="paint17_linear_1336_51" x1="736" y1="43.2542" x2="32.4084" y2="746.846" gradientUnits="userSpaceOnUse">
<stop stop-color="#4813FF"/>
<stop offset="1" stop-color="#140743"/>
</linearGradient>
<linearGradient id="paint18_linear_1336_51" x1="601.651" y1="-91.0959" x2="-101.941" y2="612.496" gradientUnits="userSpaceOnUse">
<stop stop-color="#4813FF"/>
<stop offset="1" stop-color="#140743"/>
</linearGradient>
<linearGradient id="paint19_linear_1336_51" x1="628.52" y1="-64.2263" x2="-75.072" y2="639.366" gradientUnits="userSpaceOnUse">
<stop stop-color="#4813FF"/>
<stop offset="1" stop-color="#140743"/>
</linearGradient>
<linearGradient id="paint20_linear_1336_51" x1="655.391" y1="-37.3561" x2="-48.2009" y2="666.236" gradientUnits="userSpaceOnUse">
<stop stop-color="#4813FF"/>
<stop offset="1" stop-color="#140743"/>
</linearGradient>
<linearGradient id="paint21_linear_1336_51" x1="843.481" y1="150.734" x2="139.889" y2="854.326" gradientUnits="userSpaceOnUse">
<stop stop-color="#4813FF"/>
<stop offset="1" stop-color="#140743"/>
</linearGradient>
<linearGradient id="paint22_linear_1336_51" x1="870.35" y1="177.604" x2="166.758" y2="881.196" gradientUnits="userSpaceOnUse">
<stop stop-color="#4813FF"/>
<stop offset="1" stop-color="#140743"/>
</linearGradient>
<linearGradient id="paint23_linear_1336_51" x1="897.221" y1="204.474" x2="193.629" y2="908.066" gradientUnits="userSpaceOnUse">
<stop stop-color="#4813FF"/>
<stop offset="1" stop-color="#140743"/>
</linearGradient>
</defs>
</svg>
