<svg width="43" height="40" viewBox="0 0 43 40" fill="none" xmlns="http://www.w3.org/2000/svg">
<path d="M29.7133 27.9357C31.2958 27.7747 32.4964 26.4343 32.4418 24.8256C32.3873 23.2172 31.0229 21.9303 29.3858 21.9303H29.2767C27.5848 21.9839 26.2754 23.378 26.33 25.0402C26.3846 25.8444 26.7119 26.5414 27.2031 27.024C25.3477 30.6166 22.5099 33.2439 18.2535 35.4423C15.3612 36.9436 12.36 37.4799 9.35869 37.1046C6.90297 36.7829 4.99301 35.7106 3.79229 33.9409C2.04614 31.3136 1.88249 28.4717 3.35591 25.63C4.39281 23.5924 6.02973 22.091 7.06663 21.3403C6.84837 20.6433 6.52087 19.4637 6.35722 18.6059C-1.55551 24.2359 -0.736885 31.8499 1.66423 35.4423C3.46497 38.1233 7.12123 39.7856 11.1594 39.7856C12.2508 39.7856 13.3422 39.6781 14.4337 39.4103C21.4187 38.0697 26.712 33.9946 29.7133 27.9357ZM39.3178 21.2869C35.1704 16.5147 29.0584 13.8874 22.0734 13.8874H21.2004C20.7093 12.9223 19.6724 12.2787 18.5264 12.2787H18.4172C16.7256 12.3324 15.4161 13.7264 15.4706 15.3887C15.5252 16.9973 16.8893 18.2842 18.5264 18.2842H18.6355C19.8361 18.2306 20.873 17.4799 21.3095 16.461H22.2917C26.4392 16.461 30.3681 17.6406 33.9154 19.9463C36.6437 21.7157 38.6083 24.0214 39.6997 26.8096C40.6274 29.0616 40.5728 31.26 39.5905 33.1367C38.0626 35.9784 35.4979 37.5334 32.1144 37.5334C29.9315 37.5334 27.858 36.89 26.7665 36.4074C26.1663 36.9436 25.0748 37.8014 24.3107 38.3379C26.6574 39.4101 29.0584 40 31.3504 40C36.5891 40 40.4637 37.158 41.9372 34.3163C43.5196 31.2063 43.4104 25.8444 39.3178 21.2869ZM11.596 28.847C11.6506 30.4556 13.0148 31.7423 14.6519 31.7423H14.7611C16.4527 31.6889 17.7624 30.2947 17.7078 28.6326C17.6533 27.0239 16.2889 25.7372 14.6519 25.7372H14.5429C14.4337 25.7372 14.2699 25.7372 14.1609 25.7906C11.9234 22.1446 10.9958 18.1769 11.3233 13.8873C11.5414 10.6701 12.6329 7.88185 14.5429 5.57617C16.1253 3.59224 19.1812 2.62711 21.255 2.57363C27.0394 2.46631 29.4949 9.54401 29.6587 12.3859C30.3681 12.5467 31.5687 12.9222 32.3873 13.1903C31.7323 4.50405 26.2753 0 21.0368 0C16.1253 0 11.596 3.48527 9.79505 8.63269C7.2849 15.4959 8.92198 22.091 11.9779 27.2922C11.7052 27.6674 11.5414 28.2572 11.596 28.847Z" fill="white"/>
</svg>
