<svg width="146" height="37" viewBox="0 0 146 37" fill="none" xmlns="http://www.w3.org/2000/svg">
<path d="M120.707 35.9999V1.09082H144.23V7.17605H128.088V15.4942H143.02V21.5795H128.088V29.9147H144.298V35.9999H120.707Z" fill="white"/>
<path d="M88.3153 35.9999V31.6192L105.736 7.17605H88.2812V1.09082H115.009V5.4715L97.571 29.9147H115.043V35.9999H88.3153Z" fill="white"/>
<path d="M82.5934 1.09082V35.9999H76.2184L61.0309 14.0283H60.7752V35.9999H53.3945V1.09082H59.8718L74.94 23.0454H75.2468V1.09082H82.5934Z" fill="white"/>
<path d="M47.3221 1.09082V35.9999H39.9414V1.09082H47.3221Z" fill="white"/>
<path d="M10.3414 1.09082L18.7789 27.6135H19.1028L27.5574 1.09082H35.7392L23.7051 35.9999H14.1937L2.14258 1.09082H10.3414Z" fill="white"/>
<path fill-rule="evenodd" clip-rule="evenodd" d="M119.705 36.9999V0.0908203H145.228V8.17605H129.086V14.4942H144.018V22.5795H129.086V28.9147H145.296V36.9999H119.705ZM128.086 29.9147V21.5795H143.018V15.4942H128.086V7.17605H144.228V1.09082H120.705V35.9999H144.296V29.9147H128.086Z" fill="white"/>
<path fill-rule="evenodd" clip-rule="evenodd" d="M87.3153 36.9999V31.2993L103.795 8.17605H87.2812V0.0908203H116.009V5.79164L99.5128 28.9147H116.043V36.9999H87.3153ZM97.571 29.9147L115.009 5.4715V1.09082H88.2812V7.17605H105.736L88.3153 31.6192V35.9999H115.043V29.9147H97.571Z" fill="white"/>
<path fill-rule="evenodd" clip-rule="evenodd" d="M83.5914 0.0908203V36.9999H75.692L61.7733 16.8638V36.9999H52.3926V0.0908203H60.3964L74.2449 20.2682V0.0908203H83.5914ZM75.2449 23.0454H74.938L59.8699 1.09082H53.3926V35.9999H60.7733V14.0283H61.0289L76.2164 35.9999H82.5914V1.09082H75.2449V23.0454Z" fill="white"/>
<path fill-rule="evenodd" clip-rule="evenodd" d="M48.3201 0.0908203V36.9999H38.9395V0.0908203H48.3201ZM47.3201 1.09082H39.9395V35.9999H47.3201V1.09082Z" fill="white"/>
<path fill-rule="evenodd" clip-rule="evenodd" d="M11.0715 0.0908203L18.9405 24.8264L26.8254 0.0908203H37.1405L24.4169 36.9999H13.4798L0.738281 0.0908203H11.0715ZM19.1016 27.6135H18.7778L10.3403 1.09082H2.14141L14.1925 35.9999H23.7039L35.738 1.09082H27.5562L19.1016 27.6135Z" fill="white"/>
</svg>
