<svg width="21" height="20" viewBox="0 0 21 20" fill="none" xmlns="http://www.w3.org/2000/svg">
<path fill-rule="evenodd" clip-rule="evenodd" d="M10.5087 0C4.69766 0 0 4.58331 0 10.2535C0 14.786 3.00995 18.6226 7.18555 19.9805C7.7076 20.0826 7.89883 19.7599 7.89883 19.4885C7.89883 19.2508 7.88162 18.436 7.88162 17.587C4.95836 18.1983 4.34962 16.3647 4.34962 16.3647C3.87983 15.1764 3.18375 14.871 3.18375 14.871C2.22697 14.2429 3.25345 14.2429 3.25345 14.2429C4.31477 14.3108 4.87167 15.2954 4.87167 15.2954C5.81103 16.857 7.32472 16.4158 7.93368 16.1441C8.02058 15.482 8.29914 15.0237 8.59491 14.7691C6.2634 14.5314 3.81035 13.6487 3.81035 9.71017C3.81035 8.58976 4.22765 7.67309 4.88888 6.96018C4.78456 6.7056 4.4191 5.65289 4.99342 4.24394C4.99342 4.24394 5.88073 3.97228 7.88141 5.29644C8.73797 5.07199 9.62133 4.95782 10.5087 4.95685C11.396 4.95685 12.3005 5.07581 13.1358 5.29644C15.1366 3.97228 16.024 4.24394 16.024 4.24394C16.5983 5.65289 16.2326 6.7056 16.1283 6.96018C16.8069 7.67309 17.207 8.58976 17.207 9.71017C17.207 13.6487 14.754 14.5143 12.405 14.7691C12.7879 15.0916 13.1183 15.7026 13.1183 16.6703C13.1183 18.0453 13.1011 19.1489 13.1011 19.4883C13.1011 19.7599 13.2926 20.0826 13.8144 19.9808C17.99 18.6224 21 14.786 21 10.2535C21.0172 4.58331 16.3023 0 10.5087 0Z" fill="white"/>
</svg>
