<svg width="66" height="40" viewBox="0 0 66 40" fill="none" xmlns="http://www.w3.org/2000/svg">
<path d="M32.3069 40C32.0831 40 31.873 39.939 31.6831 39.8373L29.7169 38.6711C29.4254 38.5084 29.5745 38.4474 29.6627 38.4202C30.0627 38.2846 30.1373 38.2575 30.5441 38.0202C30.5915 37.9931 30.6525 38.0067 30.6932 38.0338L32.1984 38.9355C32.2662 38.9694 32.334 38.9694 32.3747 38.9355L38.2733 35.5252C38.3275 35.4981 38.3615 35.437 38.3615 35.3625V28.5553C38.3615 28.4875 38.3275 28.4197 38.2665 28.3926L32.3747 25.0026C32.3204 24.9687 32.2391 24.9687 32.1984 25.0026L26.3065 28.3926C26.2523 28.4265 26.2184 28.4943 26.2184 28.5553V35.3625C26.2184 35.4235 26.2523 35.4981 26.3065 35.5252L27.9202 36.454C28.788 36.9015 29.3372 36.3862 29.3372 35.8642V29.1519C29.3372 29.057 29.405 28.9689 29.5135 28.9689H30.2661C30.3542 28.9689 30.4424 29.0435 30.4424 29.1452V35.8642C30.4424 37.0303 29.8118 37.7083 28.6999 37.7083C28.3609 37.7083 28.0897 37.7083 27.3439 37.3422L25.7913 36.4608C25.6022 36.3501 25.4457 36.1915 25.3374 36.0011C25.2291 35.8107 25.1728 35.5951 25.1743 35.376V28.5689C25.1743 28.1282 25.4116 27.7146 25.7913 27.4908L31.6899 24.0805C32.056 23.8771 32.5577 23.8771 32.9239 24.0805L38.8225 27.4908C39.2022 27.7146 39.4327 28.1282 39.4327 28.5756V35.376C39.4327 35.8235 39.2022 36.2371 38.8225 36.4608L32.9239 39.8644C32.734 39.9525 32.5171 40 32.3069 40ZM34.1171 35.3218C31.5407 35.3218 31.0051 34.1353 31.0051 33.1318C31.0051 33.0437 31.0729 32.9555 31.1814 32.9555H31.9475C32.0357 32.9555 32.1103 33.0166 32.1103 33.1047C32.2323 33.8844 32.5713 34.2709 34.1375 34.2709C35.3782 34.2709 35.9071 33.9929 35.9071 33.3217C35.9071 32.942 35.7579 32.664 33.8256 32.4674C32.2187 32.3047 31.2085 31.9521 31.2085 30.6707C31.2085 29.4706 32.2187 28.7655 33.9002 28.7655C35.7918 28.7655 36.7207 29.4096 36.8359 30.8334C36.8359 30.8741 36.8224 30.9215 36.7953 30.969C36.7614 30.9893 36.7207 31.0232 36.6732 31.0232H35.9071C35.8686 31.0225 35.8315 31.0086 35.8019 30.984C35.7724 30.9593 35.752 30.9254 35.7444 30.8876C35.5681 30.074 35.107 29.8096 33.9002 29.8096C32.5442 29.8096 32.3747 30.2842 32.3747 30.6368C32.3747 31.0639 32.5713 31.1995 34.4019 31.4368C36.219 31.6741 37.0732 32.0131 37.0732 33.281C37.0597 34.5828 35.9952 35.315 34.1171 35.315V35.3218ZM14.0279 13.3748C14.0279 13.1104 13.8787 12.8595 13.6414 12.7239L7.38346 9.12371C7.27822 9.06792 7.16303 9.03336 7.04446 9.02201H6.98344C6.86818 9.02201 6.74614 9.06269 6.64444 9.12371L0.386462 12.7239C0.149161 12.8595 0 13.1104 0 13.3748L0.0135601 23.0635C0.0135601 23.1991 0.0881405 23.3347 0.203401 23.3889C0.325442 23.4567 0.474603 23.4567 0.576303 23.3889L4.29854 21.26C4.53584 21.1244 4.67823 20.8803 4.67823 20.6091V16.08C4.67823 15.8088 4.82739 15.558 5.06469 15.4291L6.64444 14.5071C6.7597 14.4325 6.8953 14.4054 7.0309 14.4054C7.1665 14.4054 7.29532 14.4325 7.39702 14.5071L8.97677 15.4224C9.21407 15.558 9.36323 15.8088 9.36323 16.0733V20.6023C9.36323 20.8735 9.51239 21.1244 9.74291 21.2532L13.4719 23.3821C13.5872 23.4499 13.7296 23.4499 13.8516 23.3821C13.9098 23.3502 13.9582 23.303 13.9916 23.2457C14.025 23.1884 14.0423 23.123 14.0415 23.0567L14.0279 13.368V13.3748ZM44.1245 0.0452444C44.0668 0.0155129 44.0029 0 43.938 0C43.8732 0 43.8092 0.0155129 43.7516 0.0452444C43.6957 0.0781784 43.6491 0.124625 43.6159 0.180311C43.5828 0.235996 43.5641 0.299132 43.5617 0.363906V9.96444C43.5617 10.0526 43.5143 10.1407 43.4261 10.2017C43.3853 10.2231 43.34 10.2343 43.2939 10.2343C43.2479 10.2343 43.2025 10.2231 43.1617 10.2017L41.6023 9.29999C41.4869 9.23335 41.3559 9.19826 41.2226 9.19826C41.0893 9.19826 40.9584 9.23335 40.8429 9.29999L34.585 12.9205C34.3477 13.0561 34.1985 13.3002 34.1985 13.5646V20.7854C34.1985 21.0566 34.3477 21.3074 34.585 21.4363L40.8429 25.0568C40.9576 25.1222 41.0873 25.1566 41.2192 25.1566C41.3512 25.1566 41.4809 25.1222 41.5955 25.0568L47.8603 21.4363C48.0908 21.3007 48.24 21.0566 48.24 20.7854V2.79116C48.24 2.5064 48.0908 2.25554 47.8603 2.12672L44.1245 0.0452444ZM43.5482 18.4124C43.5482 18.4802 43.5143 18.548 43.46 18.5751L41.3175 19.8158C41.2871 19.8313 41.2534 19.8394 41.2192 19.8394C41.1851 19.8394 41.1514 19.8313 41.1209 19.8158L38.9852 18.5751C38.9174 18.5412 38.8971 18.4734 38.8971 18.4124V15.9309C38.8971 15.8563 38.9242 15.7953 38.9852 15.7682L41.1209 14.5274C41.1514 14.5119 41.1851 14.5039 41.2192 14.5039C41.2534 14.5039 41.2871 14.5119 41.3175 14.5274L43.46 15.7682C43.5143 15.7953 43.5482 15.8699 43.5482 15.9309V18.4124ZM64.9528 15.8631C65.1833 15.7275 65.3189 15.4834 65.3189 15.2122V13.4562C65.3189 13.1917 65.1697 12.9409 64.9528 12.8053L58.7355 9.20507C58.6208 9.13968 58.4911 9.10528 58.3592 9.10528C58.2272 9.10528 58.0975 9.13968 57.9829 9.20507L51.7181 12.8256C51.4808 12.9612 51.3384 13.2053 51.3384 13.4697V20.6905C51.3384 20.9617 51.4808 21.2125 51.7181 21.3413L57.9354 24.8873C58.1727 25.0229 58.4507 25.0229 58.6744 24.8873L62.4374 22.7855C62.4958 22.755 62.5449 22.7093 62.5795 22.6532C62.6141 22.5971 62.6329 22.5327 62.634 22.4668C62.634 22.3312 62.5594 22.1956 62.4374 22.1414L56.1523 18.5208C56.0942 18.4881 56.0456 18.441 56.0112 18.384C55.9767 18.327 55.9576 18.262 55.9556 18.1954V15.9377C55.9556 15.8021 56.0302 15.6732 56.1523 15.6122L58.1185 14.4935C58.1754 14.4581 58.2412 14.4393 58.3083 14.4393C58.3754 14.4393 58.4412 14.4581 58.4982 14.4935L60.4644 15.6122C60.5796 15.6868 60.6542 15.8088 60.6542 15.9377V17.7072C60.6542 17.8428 60.722 17.9784 60.844 18.0327C60.9593 18.1073 61.1152 18.1073 61.2305 18.0327L64.9528 15.8631Z" fill="white"/>
<path d="M58.2743 15.5309C58.2957 15.5177 58.3203 15.5107 58.3455 15.5107C58.3706 15.5107 58.3953 15.5177 58.4167 15.5309L59.6167 16.2224C59.6574 16.2563 59.6845 16.297 59.6845 16.358V17.748C59.6845 17.8022 59.6574 17.8497 59.6167 17.8836L58.4167 18.5751C58.3953 18.5883 58.3706 18.5953 58.3455 18.5953C58.3203 18.5953 58.2957 18.5883 58.2743 18.5751L57.0742 17.8768C57.0523 17.8618 57.0346 17.8415 57.0227 17.8178C57.0109 17.794 57.0053 17.7677 57.0064 17.7412V16.358C57.0064 16.297 57.0336 16.2563 57.0742 16.2224L58.2743 15.5309ZM24.5029 9.24579C24.3883 9.18039 24.2586 9.146 24.1266 9.146C23.9947 9.146 23.865 9.18039 23.7504 9.24579L17.5331 12.8324C17.2958 12.968 17.1602 13.2121 17.1602 13.4833V20.6701C17.1602 20.9413 17.3093 21.1854 17.5331 21.321L23.7504 24.9145C23.8642 24.9786 23.9926 25.0123 24.1233 25.0123C24.2539 25.0123 24.3823 24.9786 24.4962 24.9145L30.7202 21.321C30.9508 21.1854 31.0864 20.9346 31.0864 20.6701V13.4901C31.0864 13.2189 30.9372 12.968 30.7202 12.8392L24.5029 9.24579Z" fill="white"/>
</svg>
