<svg width="45" height="40" viewBox="0 0 45 40" fill="none" xmlns="http://www.w3.org/2000/svg">
<path d="M44.9192 20.0043C44.9192 17.0292 41.1907 14.2078 35.4787 12.4627C36.7933 6.6354 36.209 2.00741 33.6337 0.523682C33.0041 0.166062 32.2896 -0.0145736 31.5657 0.000919035V2.04585C31.9885 2.04585 32.3344 2.12272 32.6112 2.27648C33.8566 2.99912 34.3948 5.71288 33.9796 9.21078C33.8797 10.0718 33.7105 10.9789 33.5107 11.9015C31.5977 11.4398 29.6561 11.1059 27.6988 10.9021C26.5309 9.29422 25.257 7.7661 23.8857 6.32789C26.8685 3.56032 29.6745 2.03816 31.5734 2.03816V0.000919035C29.0595 0.000919035 25.7615 1.79215 22.425 4.90567C19.1116 1.81522 15.8213 0.0393575 13.2997 0.0393575V2.0766C15.1986 2.0766 18.0046 3.59107 20.9874 6.34327C19.626 7.77982 18.3648 9.30814 17.2128 10.9174C15.1371 11.1327 13.1844 11.471 11.3855 11.9168C11.1779 11.002 11.0242 10.1179 10.9088 9.26459C10.4783 5.76669 11.0088 3.05293 12.2465 2.3226C12.5233 2.16885 12.8769 2.09197 13.2997 2.09197V0.0470452C12.5309 0.0470452 11.8391 0.208487 11.2317 0.562121C8.65635 2.04585 8.07977 6.66615 9.40974 12.4704C3.71316 14.2308 0 17.0369 0 20.0043C0 22.9794 3.72853 25.8008 9.44049 27.5459C8.11821 33.3732 8.71016 38.0012 11.2855 39.4849C11.8852 39.8386 12.5771 40 13.3458 40C15.8674 40 19.1654 38.2088 22.4942 35.0953C25.8307 38.1857 29.121 39.9616 31.6426 39.9616C32.4113 39.9616 33.1032 39.8001 33.7105 39.4542C36.2859 37.9704 36.8625 33.3425 35.5325 27.5382C41.2061 25.7931 44.9115 22.9718 44.9115 20.0043H44.9192ZM32.9956 13.9003C32.6415 15.123 32.2311 16.3287 31.7656 17.5135C31.0094 16.0208 30.1675 14.573 29.244 13.1776C30.5432 13.3698 31.7963 13.6081 32.9956 13.9003ZM28.8058 23.6483C28.1202 24.8449 27.384 26.0119 26.5994 27.1462C23.8501 27.3883 21.0849 27.3908 18.3352 27.1539C16.7703 24.897 15.3922 22.5161 14.2146 20.0351C15.3743 17.538 16.7478 15.1459 18.3198 12.8855C21.0663 12.6414 23.8289 12.6363 26.5764 12.8701C28.1416 15.1295 29.5197 17.5129 30.697 19.9966C30.1204 21.2266 29.49 22.4567 28.8058 23.6483ZM31.7579 22.4567C32.2576 23.6867 32.6804 24.9167 33.0263 26.1006C31.8271 26.3928 30.5663 26.6388 29.2517 26.8387C30.1595 25.4206 30.9959 23.9582 31.7579 22.4567ZM22.4788 32.2201C21.5812 31.2905 20.7318 30.3154 19.9342 29.2987C21.6195 29.374 23.3074 29.374 24.9927 29.2987C24.2081 30.3196 23.3689 31.2974 22.4788 32.2277V32.2201ZM15.6675 26.8387C14.4038 26.6535 13.1494 26.4098 11.9082 26.1083C12.2465 24.9321 12.677 23.7098 13.146 22.4951C13.9018 23.9905 14.7437 25.4408 15.6675 26.8387ZM22.4327 7.78087C23.328 8.71311 24.1747 9.69074 24.9696 10.7099C23.2843 10.6345 21.5965 10.6345 19.9111 10.7099C20.6984 9.69141 21.5402 8.71621 22.4327 7.78856V7.78087ZM15.6522 13.1776C14.7448 14.5907 13.9084 16.048 13.146 17.5442C12.6539 16.3142 12.2311 15.0842 11.8852 13.9003C13.0845 13.6158 14.3452 13.3621 15.6522 13.1776ZM7.38019 24.6323C4.13598 23.2485 2.03724 21.4419 2.03724 20.0043C2.03724 18.5667 4.13598 16.7447 7.38019 15.3763C8.16433 15.0304 9.02536 14.7305 9.91713 14.4538C10.4753 16.3532 11.161 18.2127 11.9697 20.0197C11.1678 21.8215 10.4897 23.676 9.94019 25.5702C9.07219 25.3021 8.21783 24.9917 7.38019 24.64V24.6323ZM12.3003 37.7168C11.0549 37.0095 10.5168 34.288 10.9396 30.7901C11.0395 29.9291 11.201 29.022 11.4009 28.0994C13.1998 28.5376 15.1601 28.8759 17.2204 29.0988C18.4505 30.7901 19.7343 32.3277 21.0259 33.673C18.043 36.4483 15.2447 37.9704 13.3382 37.9704C12.9765 37.9731 12.6199 37.886 12.3003 37.7168ZM34.0104 30.7517C34.4409 34.2496 33.9104 36.971 32.6727 37.6937C32.4036 37.8551 32.0423 37.9243 31.6195 37.9243C29.7283 37.9243 26.9146 36.4175 23.9318 33.6653C25.2959 32.2291 26.5596 30.7007 27.7141 29.0912C29.7821 28.8759 31.7425 28.5376 33.5337 28.0918C33.749 29.0143 33.9181 29.8984 34.0104 30.7517ZM37.539 24.6477C36.7472 24.9859 35.8862 25.2857 35.0021 25.5702C34.4421 23.6654 33.7538 21.8007 32.9418 19.9889C33.7874 18.0824 34.4639 16.222 34.9713 14.4384C35.8785 14.7229 36.7395 15.0304 37.5467 15.3763C40.7832 16.7601 42.882 18.5667 42.882 20.0043C42.8743 21.4419 40.7755 23.2639 37.539 24.64V24.6477Z" fill="white"/>
<path d="M22.4477 24.1865C23.5569 24.1865 24.6206 23.7459 25.4049 22.9616C26.1892 22.1773 26.6298 21.1135 26.6298 20.0044C26.6298 18.8952 26.1892 17.8315 25.4049 17.0472C24.6206 16.2629 23.5569 15.8223 22.4477 15.8223C21.3386 15.8223 20.2748 16.2629 19.4905 17.0472C18.7062 17.8315 18.2656 18.8952 18.2656 20.0044C18.2656 21.1135 18.7062 22.1773 19.4905 22.9616C20.2748 23.7459 21.3386 24.1865 22.4477 24.1865Z" fill="white"/>
</svg>
