<svg viewBox="0 0 140 35" fill="none" xmlns="http://www.w3.org/2000/svg">
<path d="M10.7 0L17.86 24.61H18.13L25.3 0H36L24.48 34.91H11.53L0 0H10.7Z" fill="black"/>
<path d="M47.48 0V34.91H38V0H47.48Z" fill="black"/>
<path d="M81.7405 34.91H71.7705L59.1605 16.57H58.9605V34.91H49.4805V0H57.5305" fill="black"/>
<path d="M102.48 0H112.31L95.8102 27.27H112.24V34.91H83.7402V29.66" fill="black"/>
<path d="M114.311 34.91V0H139.471V7.64H123.791V13.64H139.471V21.28H123.791V27.28H139.401V34.92H114.311V34.91Z" fill="black"/>
<path d="M59.8301 0L80.9601 30.68L100.22 0L81.0101 7.15L59.8301 0Z" fill="#6E44FF"/>
</svg>
