<svg width="90" height="40" viewBox="0 0 90 40" fill="none" xmlns="http://www.w3.org/2000/svg">
<path d="M0 20C0 8.95431 8.95431 0 20 0H70C81.0457 0 90 8.95431 90 20C90 31.0457 81.0457 40 70 40H20C8.9543 40 0 31.0457 0 20Z" fill="#17C964"/>
<path d="M58.0781 30V12.5454H65.0668C66.3509 12.5454 67.4219 12.7358 68.2798 13.1164C69.1378 13.4971 69.7827 14.0255 70.2145 14.7017C70.6463 15.3721 70.8622 16.1448 70.8622 17.0198C70.8622 17.7017 70.7259 18.3011 70.4531 18.8181C70.1804 19.3295 69.8054 19.75 69.3281 20.0795C68.8565 20.4034 68.3168 20.6335 67.7088 20.7698V20.9403C68.3736 20.9687 68.9957 21.1562 69.5753 21.5028C70.1605 21.8494 70.6349 22.3352 70.9986 22.9602C71.3622 23.5795 71.544 24.3181 71.544 25.1761C71.544 26.1022 71.3139 26.9289 70.8537 27.6562C70.3991 28.3778 69.7259 28.9488 68.8338 29.3693C67.9418 29.7897 66.8423 30 65.5355 30H58.0781ZM61.7685 26.9829H64.777C65.8054 26.9829 66.5554 26.7869 67.027 26.3948C67.4986 25.9971 67.7344 25.4687 67.7344 24.8096C67.7344 24.3267 67.6179 23.9005 67.3849 23.5312C67.152 23.1619 66.8196 22.8721 66.3878 22.6619C65.9617 22.4517 65.4531 22.3465 64.8622 22.3465H61.7685V26.9829ZM61.7685 19.8494H64.5043C65.0099 19.8494 65.4588 19.7613 65.8509 19.5852C66.2486 19.4034 66.5611 19.1477 66.7884 18.8181C67.0213 18.4886 67.1378 18.0937 67.1378 17.6335C67.1378 17.0028 66.9134 16.4943 66.4645 16.1079C66.0213 15.7215 65.3906 15.5284 64.5724 15.5284H61.7685V19.8494Z" fill="hsl(var(--vinze-background))"/>
<path d="M43.3828 30V12.5454H55.1442V15.588H47.0732V19.7471H54.5391V22.7897H47.0732V26.9573H55.1783V30H43.3828Z" fill="hsl(var(--vinze-background))"/>
<path d="M22.4455 30L17.4512 12.5454H21.4824L24.3716 24.6733H24.5165L27.704 12.5454H31.1557L34.3347 24.6988H34.4881L37.3773 12.5454H41.4086L36.4142 30H32.8176L29.4938 18.588H29.3574L26.0421 30H22.4455Z" fill="hsl(var(--vinze-background))"/>
</svg>
